HIERARCHY
ROOT Hips
{
	OFFSET 0.000000 0.000000 0.000000 
	CHANNELS 6 Xposition Yposition Zposition Yrotation Zrotation Xrotation 
	JOINT Lumbar
	{
		OFFSET 0.000000 0.000000 0.000000 
		CHANNELS 3 Zrotation Xrotation Yrotation
		JOINT Neck
		{
			OFFSET 0.000000 0.445665 0.000000 
			CHANNELS 3 Zrotation Xrotation Yrotation
			End Site
			{
				OFFSET 0.000000 0.227535 0.000000 
			}
		}
		JOINT RightShoulder
		{
			OFFSET 0.019635 0.377685 0.194865 
			CHANNELS 3 Zrotation Xrotation Yrotation
			JOINT RightElbow
			{
				OFFSET 0.000000 -0.243375 0.000000 
				CHANNELS 2 Zrotation Yrotation
				JOINT RightWrist
				{
					OFFSET 0.000000 -0.264825 0.000000 
					CHANNELS 2 Zrotation Xrotation
					End Site
					{
						OFFSET 0.006600 -0.176220 0.000990 
					}
				}
			}
		}
		JOINT LeftShoulder
		{
			OFFSET 0.019635 0.377685 -0.194865 
			CHANNELS 3 Zrotation Xrotation Yrotation
			JOINT LeftElbow
			{
				OFFSET 0.000000 -0.243375 0.000000 
				CHANNELS 2 Zrotation Yrotation
				JOINT LeftWrist
				{
					OFFSET 0.000000 -0.264825 0.000000 
					CHANNELS 2 Zrotation Xrotation
					End Site
					{
						OFFSET 0.006600 -0.176220 -0.000990 
					}
				}
			}
		}
	}
	JOINT RightHip
	{
		OFFSET 0.052140 -0.069960 0.075570 
		CHANNELS 3 Zrotation Xrotation Yrotation
		JOINT RightKnee
		{
			OFFSET 0.000000 -0.402270 0.000000 
			CHANNELS 1 Zrotation
			JOINT RightAnkle
			{
				OFFSET 0.000000 -0.404085 0.000000 
				CHANNELS 3 Zrotation Xrotation Yrotation
				End Site
				{
					OFFSET 0.204105 -0.089430 0.008415 
				}
			}
		}
	}
	JOINT LeftHip
	{
		OFFSET 0.052140 -0.069960 -0.075570 
		CHANNELS 3 Zrotation Xrotation Yrotation
		JOINT LeftKnee
		{
			OFFSET 0.000000 -0.402270 0.000000 
			CHANNELS 1 Zrotation
			JOINT LeftAnkle
			{
				OFFSET 0.000000 -0.404085 0.000000 
				CHANNELS 3 Zrotation Xrotation Yrotation
				End Site
				{
					OFFSET 0.204105 -0.089430 -0.008415 
				}
			}
		}
	}
}
MOTION
Frames: 20
Frame Time: 0.02
0 0.95578 -0 182.93972 0 -3.21014 1.99715 3.06542 -5.52087 -39.00115 5.95798 2.74572 -5.9794 -76.7042 -79.50074 21.30337 78.03463 -19.85836 -3.00938 4.70447 64.65054 69.37449 23.34906 -77.25225 -31.16996 3.17329 -4.0801 3.662 5.62516 -7.12847 -2.20918 -3.71069 -7.39688 -2.59314 4.97847 3.46082 -6.78531 0.5247 2.2868 0.40586
-0.00011 0.95577 5e-05 182.91753 0 -3.21292 1.99271 3.06831 -5.5057 -38.98631 5.94227 2.75362 -5.95423 -76.6905 -79.49048 21.31419 78.04497 -19.85106 -3.00177 4.65669 64.63941 69.43942 23.34579 -77.28526 -31.15015 3.20518 -4.07488 3.66214 5.67009 -7.14577 -2.20255 -3.72617 -7.41624 -2.60371 4.97677 3.46043 -6.78993 0.54338 2.30579 0.42971
-0.00023 0.95576 0.00011 182.89546 0 -3.21575 1.98823 3.07131 -5.49055 -38.97156 5.92652 2.76144 -5.92886 -76.67664 -79.47999 21.325 78.05514 -19.84368 -2.99425 4.60909 64.62841 69.50384 23.34244 -77.31845 -31.12997 3.23679 -4.06966 3.66231 5.71463 -7.16308 -2.19594 -3.74156 -7.43542 -2.61428 4.97513 3.46024 -6.79447 0.56202 2.32455 0.45315
-0.00034 0.95574 0.00016 182.87372 0 -3.21864 1.98378 3.07446 -5.47541 -38.95717 5.91072 2.76908 -5.90223 -76.66232 -79.46842 21.33566 78.06414 -19.83639 -2.9871 4.56211 64.61783 69.56656 23.3385 -77.35314 -31.10796 3.2672 -4.06468 3.66249 5.75842 -7.18011 -2.18939 -3.75673 -7.45433 -2.62496 4.97354 3.4605 -6.79871 0.58078 2.34282 0.4757
-0.00045 0.95573 0.00021 182.85031 0 -3.22102 1.97946 3.07645 -5.46031 -38.94107 5.8955 2.77773 -5.88203 -76.65079 -79.46254 21.34681 78.07861 -19.8292 -2.97808 4.5123 64.60503 69.63793 23.33738 -77.38045 -31.09546 3.30348 -4.05876 3.66244 5.80663 -7.19804 -2.18256 -3.77308 -7.47497 -2.63509 4.97143 3.45796 -6.80448 0.59903 2.36397 0.50359
-0.00057 0.95572 0.00027 182.8304 0 -3.22458 1.97469 3.08112 -5.44505 -38.92845 5.87886 2.7842 -5.84842 -76.63315 -79.44463 21.35711 78.08201 -19.82138 -2.97296 4.46824 64.59694 69.69119 23.33049 -77.42296 -31.063 3.32763 -4.05459 3.66301 5.84516 -7.21445 -2.17629 -3.7869 -7.49175 -2.64633 4.9706 3.46163 -6.80708 0.61825 2.37885 0.51971
-0.00073 0.9557 0.00037 182.82062 0 -3.23083 1.96988 3.09149 -5.42972 -38.92668 5.8594 2.78478 -5.77401 -76.59933 -79.39153 21.36394 78.04915 -19.81516 -2.97932 4.44153 64.60179 69.69203 23.30572 -77.51374 -30.971 3.315 -4.0575 3.66447 5.85917 -7.22355 -2.17191 -3.79412 -7.49945 -2.66145 4.97196 3.48052 -6.80017 0.64155 2.37738 0.50639
-0.0009 0.95569 0.00049 182.81444 0 -3.23835 1.96433 3.10485 -5.41422 -38.92811 5.83838 2.78312 -5.6867 -76.55918 -79.32651 21.37031 78.0059 -19.8077 -2.98948 4.42021 64.61127 69.67514 23.27567 -77.61911 -30.85951 3.29068 -4.06176 3.66676 5.86288 -7.23172 -2.16804 -3.79874 -7.50302 -2.6775 4.9749 3.50591 -6.79022 0.66555 2.3694 0.4806
-0.00105 0.95567 0.00059 182.80606 0 -3.24567 1.95844 3.11802 -5.39838 -38.92737 5.81718 2.78243 -5.60762 -76.5214 -79.26827 21.37743 77.97137 -19.79862 -2.99749 4.39561 64.61881 69.66782 23.24902 -77.71341 -30.75977 3.27387 -4.06395 3.66912 5.87009 -7.24234 -2.16375 -3.80431 -7.5074 -2.69272 4.97792 3.52979 -6.78211 0.68838 2.36376 0.45853
-0.00123 0.95565 0.00071 182.79935 0 -3.25148 1.95569 3.1264 -5.38391 -38.92999 5.79929 2.78203 -5.51847 -76.48568 -79.20462 21.38156 77.92091 -19.79872 -3.00737 4.37505 64.62616 69.65371 23.21731 -77.82517 -30.64803 3.24794 -4.07233 3.66934 5.88287 -7.24434 -2.16027 -3.81081 -7.51611 -2.70998 4.9774 3.54817 -6.77195 0.71494 2.36072 0.44474
-0.00136 0.95565 0.00081 182.79091 0 -3.26067 1.94589 3.14526 -5.36704 -38.92595 5.7747 2.78036 -5.44733 -76.44425 -79.14898 21.39269 77.89996 -19.77942 -3.01416 4.34667 64.63441 69.65002 23.19593 -77.90563 -30.55639 3.23806 -4.06809 3.67452 5.88085 -7.26417 -2.15522 -3.81482 -7.51504 -2.72282 4.98484 3.57879 -6.76549 0.73374 2.35071 0.41069
-0.00138 0.95567 0.0009 182.76923 0 -3.27931 1.91959 3.19412 -5.33927 -38.90623 5.72712 2.77695 -5.42764 -76.38785 -79.12114 21.41646 77.97339 -19.7067 -3.01215 4.30118 64.64885 69.67542 23.19614 -77.88291 -30.52695 3.27682 -4.02915 3.69076 5.84721 -7.33245 -2.14561 -3.81201 -7.486 -2.72665 5.01203 3.64802 -6.76843 0.73205 2.32324 0.32425
-0.00134 0.95571 0.00098 182.74717 0 -3.30121 1.88569 3.25307 -5.30991 -38.879 5.67372 2.77207 -5.42633 -76.32596 -79.10076 21.44914 78.07498 -19.61449 -3.00677 4.24651 64.66305 69.71263 23.20894 -77.83101 -30.51781 3.33191 -3.97746 3.71242 5.79785 -7.41876 -2.13443 -3.80689 -7.44765 -2.72537 5.04754 3.7281 -6.77542 0.72226 2.28896 0.21778
-0.00131 0.95575 0.00104 182.73015 0 -3.32139 1.85346 3.30623 -5.28409 -38.853 5.62621 2.76716 -5.41812 -76.26727 -79.07575 21.48144 78.15682 -19.53135 -3.00248 4.19229 64.67426 69.74717 23.22078 -77.80072 -30.49843 3.37855 -3.93122 3.73316 5.75123 -7.49765 -2.12404 -3.80322 -7.41477 -2.72418 5.08043 3.79905 -6.78163 0.71549 2.25768 0.12018
-0.00133 0.95578 0.00121 182.6924 0 -3.34276 1.8288 3.36461 -5.24631 -38.83652 5.5651 2.76534 -5.40521 -76.2059 -79.05755 21.49582 78.26747 -19.44742 -3.00013 4.15416 64.69901 69.76997 23.21039 -77.7343 -30.48365 3.42901 -3.88617 3.74735 5.7226 -7.57381 -2.1133 -3.79778 -7.37636 -2.73242 5.10842 3.88815 -6.78348 0.71169 2.22655 0.02314
-0.00125 0.95582 0.00115 182.69808 0 -3.36226 1.78651 3.41446 -5.23315 -38.79812 5.53074 2.75647 -5.40426 -76.14824 -79.02462 21.55267 78.32519 -19.36035 -2.99295 4.08001 64.69506 69.81994 23.25178 -77.73774 -30.46311 3.47569 -3.83597 3.77654 5.65319 -7.65924 -2.10293 -3.79549 -7.34751 -2.71982 5.14865 3.94171 -6.79512 0.69959 2.19358 -0.07969
-0.00088 0.95591 0.00049 182.82052 0 -3.377 1.69802 3.43833 -5.28747 -38.70345 5.57354 2.73102 -5.45135 -76.10756 -78.96949 21.69969 78.22809 -19.2711 -2.97292 3.9111 64.6149 69.94456 23.41327 -77.92602 -30.43279 3.50661 -3.77141 3.8452 5.47282 -7.7719 -2.09401 -3.8028 -7.34575 -2.65076 5.21996 3.89617 -6.83563 0.66812 2.15709 -0.19331
-0.00041 0.956 -0.00041 182.98723 0 -3.38952 1.59195 3.4533 -5.3667 -38.58651 5.64308 2.69805 -5.50575 -76.06975 -78.89495 21.89447 78.07742 -19.17923 -2.94826 3.70606 64.50508 70.09544 23.63068 -78.18811 -30.39409 3.5334 -3.70269 3.92891 5.25247 -7.8921 -2.08552 -3.81332 -7.35425 -2.56089 5.30345 3.81413 -6.88545 0.6283 2.11902 -0.31203
1e-05 0.95609 -0.00122 183.13584 0 -3.40226 1.49351 3.47222 -5.43523 -38.47821 5.69921 2.66687 -5.54472 -76.02722 -78.81682 22.0829 77.95213 -19.0872 -2.92585 3.51551 64.40715 70.23311 23.83482 -78.42663 -30.35195 3.56307 -3.63801 4.00611 5.05189 -8.00493 -2.07677 -3.82218 -7.35912 -2.48075 5.38179 3.74771 -6.92908 0.59126 2.08173 -0.42859
0.00043 0.95619 -0.00192 183.27612 0 -3.41847 1.39627 3.49164 -5.50148 -38.37596 5.7606 2.64255 -5.63754 -75.99923 -78.79382 22.20407 77.8223 -18.99943 -2.90244 3.3315 64.31682 70.37778 23.98595 -78.6231 -30.34079 3.58931 -3.56386 4.08199 4.84383 -8.1352 -2.06813 -3.83181 -7.35933 -2.39952 5.45869 3.68586 -6.98076 0.55813 2.04391 -0.54529
